/* XPM */
static char *wall[] = {
/* columns rows colors chars-per-pixel */
"32 32 25 1 ",
"# c #928263",
"$ c #A67596",
"% c #A99D86",
"& c #D6D5DF",
"' c #222034",
"* c #82634B",
"+ c #ECB12D",
", c #F0E5ED",
"- c #E2E2E8",
". c #78A158",
": c #ECECED",
"; c #E4E4E8",
"= c #E7E7E7",
"> c #EDEDEE",
"@ c #99E550",
"A c #8A7357",
"B c #B78A62",
"X c #A4C263",
"Y c #DF7126",
"a c #6ABE30",
"b c #37946E",
"e c #241D0D",
"f c #C49A6C",
"g c #222124",
"o c #C0D470",
/* pixels */
"................................"
".....XXXX.....XbbXX....XXXX.....",
"...XXXXXXXXXXXXbbXXXXX.XXXXX....",
".BXXXXXXXXXXXXBbbBXXXXXXXXXXXXB.",
"ffBXXXXXXXXXXBffffBXXXXXXXXXXBff",
"ffbBffffffffBbffffbBffffffffBbff",
"ffbbbbbbbbbbbbffffbbbbbbbbbbbbff",
"ffboooooooooobffffboooooooooobff",
"bfbBffffffffBbfbbfbBffffffffBbfb",
"bfbbbbbbbbbbbbfbbfbbbbbbbbbbbbfb",
"bBbbbbbbbbbbbbBbbBbbbbbbbbbbbbBb",
"bBboooooooooobBbbBboooooooooobBb",
"bBooooooooooooBbbBooooooooooooBb",
"boooooooooooooobboooooooooooooob",
"boooooooooooooobboooooooooooooob",
"boooooooooooooobboooooooooooooob",
"boooooooooooooobboooooooooooooob",
"boooooooooooooobboooooooooooooob",
"BBooooooooooooBBBBooooooooooooBB",
"ffBooooooooooBffffBooooooooooBff",
"ffBooooooooooBffffBooooooooooBff",
"ffbBffffffffBbffffbBffffffffBbff",
"ffbbbbbbbbbbbbffffbbbbbbbbbbbbff",
"ffboooooooooobffffboooooooooobff",
"bfbBffffffffBbfbbfbBffffffffBbfb",
"bfbbbbbbbbbbbbfbbfbbbbbbbbbbbbfb",
"bBbbbbbbbbbbbbBbbBbbbbbbbbbbbbBb",
"bBbXXXXXXXXXXbBbbBbXXXXXXXXXXbBb",
".BXXXXXXXXXXXXBbbBXXXXXXXXXXXXB.",
"...XXXXXXXXXXXXbbXXXXX.XXXXX....",
".....XXXX.....XbbXX....XXXX.....",
"................................"
};
